<?xml version="1.0" encoding="utf-8"?>
<!-- Generator: Adobe Illustrator 15.0.2, SVG Export Plug-In . SVG Version: 6.00 Build 0)  -->
<!DOCTYPE svg PUBLIC "-//W3C//DTD SVG 1.1//EN" "http://www.w3.org/Graphics/SVG/1.1/DTD/svg11.dtd">
<svg version="1.1" id="Layer_1" xmlns="http://www.w3.org/2000/svg" xmlns:xlink="http://www.w3.org/1999/xlink" x="0px" y="0px"
	 width="35.311px" height="99.949px" viewBox="0 0 35.311 99.949" enable-background="new 0 0 35.311 99.949" xml:space="preserve">
<path fill="#FFFFFF" d="M15.357,0C12.077,0.374,0.108,5.845-0.247,34.064c-0.361,29.702,12.324,35.954,15.638,35.901V50.337
	c-2.725-0.014-3.276-2.995-3.918-9.141c-0.397-4.079-0.519-9.118,0-14.121c0.392-3.521,1.046-6.952,3.918-6.956L15.357,0L15.357,0z"
	/>
<path fill="#FFFFFF" d="M22.451,70c1.282-0.017,2.191-1.049,2.188-2.224l0,0c0,0,0.003-15.29,0-15.286
	c0.003-1.227-0.979-2.183-2.188-2.19h-5.542V70C16.909,70,22.451,69.992,22.451,70L22.451,70L22.451,70z"/>
<path fill="#FFFFFF" d="M22.451,20.121c1.282,0.003,2.191-1.031,2.188-2.188l0,0c0,0,0.003-15.748,0-15.745
	C24.642,0.962,23.66,0.005,22.451,0h-5.542v20.121C16.909,20.121,22.451,20.131,22.451,20.121L22.451,20.121L22.451,20.121z"/>
</svg>
